# xmcd
#
# Track frame offsets: 
#        150
#        12057
#        31025
#        46720
#        63580
#        77157
#        87825
#        116687
#        124570
#        143825
#
# Disc length: 2096 seconds
#
# Revision: 4
# Processed by: cddbd v1.5.2PL0 Copyright (c) Steve Scherf et al.
# Submitted via: ExactAudioCopy v0.95b3
#
DISCID=72082e0a
DTITLE=B.B. King - Live At The Regal (Remaster)
DYEAR=1964
DGENRE=Blues
TTITLE0=Every Day (I Have The Blues)(Live)
TTITLE1=Sweet Little Angel (Live)
TTITLE2=It's My Own Fault (Live)
TTITLE3=How Blues Can You Get (Live)
TTITLE4=Please Love Me (Live)
TTITLE5=You Upset Me Baby (Live)
TTITLE6=Worry, Worry (Live)
TTITLE7=Woke Up This Morning (Live)
TTITLE8=You Done Lost Your Good Thing Now (Live)
TTITLE9=Help The Poor (Live)
EXTD=ID3G:   0
EXTT0=
EXTT1=
EXTT2=
EXTT3=
EXTT4=
EXTT5=
EXTT6=
EXTT7=
EXTT8=
EXTT9=
PLAYORDER=
